<svg width="58" height="58" viewBox="0 0 58 58" fill="none" xmlns="http://www.w3.org/2000/svg">
<path d="M29 23.7013C29 19.5927 32.8666 15.006 32.0039 10.9889L29.9777 1.55306C29.7515 0.499664 28.2485 0.499657 28.0223 1.55306L24.2033 19.3375C23.6798 21.7754 21.7754 23.6798 19.3375 24.2033L1.55306 28.0223C0.499661 28.2485 0.499656 29.7515 1.55305 29.9777L19.3375 33.7967C21.7754 34.3202 23.6798 36.2246 24.2033 38.6625L28.0223 56.4469C28.2485 57.5003 29.7515 57.5003 29.9777 56.4469L33.7967 38.6625C34.3202 36.2246 36.2246 34.3202 38.6625 33.7967L56.4469 29.9777C57.5003 29.7515 57.5003 28.2485 56.4469 28.0223L47.0111 25.9961C42.994 25.1334 38.4073 29 34.2987 29C31.3723 29 29 26.6277 29 23.7013Z" fill="white" style="mix-blend-mode:plus-lighter"/>
<path d="M34.7193 21.1648C34.4169 21.2245 34.1283 21.3715 33.8939 21.6058C33.265 22.2347 33.265 23.2544 33.8939 23.8833C34.5228 24.5122 35.5425 24.5122 36.1714 23.8833C36.4386 23.6161 36.5922 23.2784 36.6324 22.93C36.9079 23.821 36.693 24.831 35.9877 25.5362C34.9734 26.5506 33.3288 26.5506 32.3144 25.5362C31.3001 24.5219 31.3001 22.8773 32.3144 21.863C32.9671 21.2103 33.8806 20.9776 34.7193 21.1648Z" fill="white" style="mix-blend-mode:plus-lighter"/>
</svg>
